# xmcd CD database file
#
# Track frame offsets:
#	150
#	19862
#	37372
#	61805
#	77471
#	94923
#	111681
#	125895
#	142949
#	159500
#	176494
#	197356
#
# Disc length: 2898 seconds
#
# Revision: 1
# Processed by: cddbd v1.5.2PL0 Copyright (c) Steve Scherf et al.
# Submitted via: CDex 1.70beta2
#
DISCID=a40b500c
DTITLE=Jason Crabb, 1977- - Jason Crabb
DYEAR=2009
DGENRE=CCM Country 2001-2020
TTITLE0=Somebody Like Me - Michael Boggs, Neil Thrasher
TTITLE1=Walk On Water - Vicky McGehee, Bobby Pinson, Trent Tomlinson
TTITLE2=Daystar - Steve Richardson
TTITLE3=Worth It All - Gerald Crabb
TTITLE4=I Will Love You - Scott Krippayne, Sue C. Smith
TTITLE5=Through the Fire - Gerald Crabb
TTITLE6=Sometimes I Cry - Gerald Crabb
TTITLE7=Hope For Me Yet - Marc Broussard, Radney Foster, Justin Tocket
TTITLE8=One Day At a Time - James Rueger, Tony Wood
TTITLE9=Ellsworth - Michael William Dulaney, Wendell Mobley, Neil Thrasher
TTITLE10=No Love Lost - Gordon Kennedy, Tommy Sims
TTITLE11=Forever's End - Randy Goodrum, Carl Utbult
EXTD=YEAR: 2009
EXTT0=
EXTT1=
EXTT2=
EXTT3=
EXTT4=
EXTT5=
EXTT6=
EXTT7=
EXTT8=
EXTT9=
EXTT10=
EXTT11=
PLAYORDER=
